<svg id="Layer_1" data-name="Layer 1" xmlns="http://www.w3.org/2000/svg" viewBox="0 0 773 224"><defs><style>.cls-1{fill:#0080ff;}.cls-2{fill:#fff;}</style></defs><rect class="cls-1" x="54" y="32" width="690" height="160" rx="80"/><path class="cls-1" d="M54,112c0,50-25,80-25,80s55,0,70-38C110.68,124.4,54,80.18,54,112Z"/><path class="cls-2" d="M140,139.9a18.43,18.43,0,0,1-7.79-1.72,21,21,0,0,1-6.57-4.76,22.4,22.4,0,0,1-4.48-7.15,23.78,23.78,0,0,1-1.63-8.84,22.81,22.81,0,0,1,6.11-15.62,21.2,21.2,0,0,1,6.57-4.76A18.43,18.43,0,0,1,140,95.33a17.5,17.5,0,0,1,7.88,1.72,17.25,17.25,0,0,1,5.84,4.76,21.88,21.88,0,0,1,3.67,7.07,28.49,28.49,0,0,1,1.27,8.65,26.79,26.79,0,0,1-1.18,8.65,22.61,22.61,0,0,1-3.67,7.11,17.48,17.48,0,0,1-5.84,4.84A17.2,17.2,0,0,1,140,139.9Zm1.54-10.6a10.59,10.59,0,0,0,5.57-1.5,11,11,0,0,0,4-4.12,11.91,11.91,0,0,0,1.49-6,12.3,12.3,0,0,0-1.45-6.07,10.61,10.61,0,0,0-4-4.12,11,11,0,0,0-5.7-1.5,10.85,10.85,0,0,0-5.62,1.5,11,11,0,0,0-4,4.12,12.11,12.11,0,0,0-1.49,6.07,11.91,11.91,0,0,0,1.49,6,10.84,10.84,0,0,0,4.08,4.12A11.07,11.07,0,0,0,141.49,129.3Zm16.76,10.6a6.61,6.61,0,0,1-3.76-.86,3.86,3.86,0,0,1-1.5-2.76V80.57a16.14,16.14,0,0,1,.23-2.81,3.12,3.12,0,0,1,1.31-2,6.5,6.5,0,0,1,3.63-.77,7,7,0,0,1,3.66.73,3.2,3.2,0,0,1,1.45,2,11.67,11.67,0,0,1,.32,2.81v53.89a11.61,11.61,0,0,1-.32,2.81,3.25,3.25,0,0,1-1.4,2A6.69,6.69,0,0,1,158.25,139.9Z"/><path class="cls-2" d="M193.66,140.62a21.83,21.83,0,0,1-8.42-1.72,25,25,0,0,1-7.47-4.75,22.06,22.06,0,0,1-7.12-16.44,22.78,22.78,0,0,1,6.71-16.31,23.11,23.11,0,0,1,7.29-4.94,23.4,23.4,0,0,1,20.42,1.27,23.15,23.15,0,0,1,8.25,8.2,22.41,22.41,0,0,1,3.08,11.69,22.82,22.82,0,0,1-1.91,9.42,22,22,0,0,1-5.16,7.29A23.53,23.53,0,0,1,202,139,22.14,22.14,0,0,1,193.66,140.62Zm-.18-10.78a11.88,11.88,0,0,0,5.75-1.49,12.06,12.06,0,0,0,6.3-10.92,12.56,12.56,0,0,0-1.54-6.25,10.75,10.75,0,0,0-4.3-4.21,13.12,13.12,0,0,0-6.3-1.49,11.75,11.75,0,0,0-10.28,5.89,12,12,0,0,0-1.59,6.16,12.13,12.13,0,0,0,1.73,6.56,12.09,12.09,0,0,0,10.23,5.75Z"/><path class="cls-2" d="M239.85,139.9a5.4,5.4,0,0,1-2.94-.68,4.26,4.26,0,0,1-1.54-1.68,13.55,13.55,0,0,1-.77-1.81l-13.4-33.6a9.39,9.39,0,0,1-.5-3,3,3,0,0,1,.9-2,7.15,7.15,0,0,1,2.68-1.49q2.9-1.19,4.57-.64c1.12.36,2,1.39,2.49,3.08L240,120.88l7.7-21.74c.24-.55.52-1.13.86-1.77a4.31,4.31,0,0,1,1.58-1.63,5.24,5.24,0,0,1,2.81-.68,5.86,5.86,0,0,1,3.08.68,5.11,5.11,0,0,1,1.67,1.63,5.9,5.9,0,0,1,.77,1.68l7.7,22,8.34-22.19a6.88,6.88,0,0,1,2.71-3.72q1.63-.9,4.44.18A6.91,6.91,0,0,1,285.05,98c.61,1,.52,2.46-.27,4.21l-13.31,33.51c-.25.61-.53,1.22-.86,1.86a4.5,4.5,0,0,1-1.54,1.63,5.24,5.24,0,0,1-2.86.68,5.56,5.56,0,0,1-2.8-.59,4,4,0,0,1-1.54-1.59,19,19,0,0,1-1-2.08L253,113.36l-7.79,22.28c-.36.85-.7,1.6-1,2.26a3,3,0,0,1-1.45,1.5A6.68,6.68,0,0,1,239.85,139.9Z"/><path class="cls-2" d="M297.19,139.9a6.75,6.75,0,0,1-3.67-.77,3.2,3.2,0,0,1-1.4-2,12.78,12.78,0,0,1-.27-2.76V100.5a10.15,10.15,0,0,1,.31-2.63A3.1,3.1,0,0,1,293.61,96a7.5,7.5,0,0,1,3.67-.68,7.42,7.42,0,0,1,3.26.55,2.83,2.83,0,0,1,1.45,1.4,5.07,5.07,0,0,1,.41,1.63,7.63,7.63,0,0,0,.14,1.22l-.37,2.9a8.88,8.88,0,0,1,1.81-2.81,15.94,15.94,0,0,1,3.08-2.49A18.12,18.12,0,0,1,311,95.92a14.5,14.5,0,0,1,4.4-.68A18.18,18.18,0,0,1,323,96.78a16.7,16.7,0,0,1,5.75,4.35,19.56,19.56,0,0,1,3.67,6.7,27.89,27.89,0,0,1,1.26,8.61v18a11.18,11.18,0,0,1-.31,2.77,3.27,3.27,0,0,1-1.41,1.94,9.68,9.68,0,0,1-7.47,0,3.36,3.36,0,0,1-1.45-2,11,11,0,0,1-.32-2.76V116.44a13.38,13.38,0,0,0-1.08-5.62,8.25,8.25,0,0,0-3.26-3.67,10.43,10.43,0,0,0-5.44-1.31,11,11,0,0,0-5.43,1.31,9.09,9.09,0,0,0-3.63,3.67,11.75,11.75,0,0,0-1.26,5.62v18a12.3,12.3,0,0,1-.28,2.77,3,3,0,0,1-1.4,1.94A7.19,7.19,0,0,1,297.19,139.9Z"/><path class="cls-2" d="M368.84,139.63A5.1,5.1,0,0,1,365,137.9a5.62,5.62,0,0,1-1.63-4,21.52,21.52,0,0,1,.18-2.81,9.55,9.55,0,0,1,.77-2.63A7.65,7.65,0,0,1,366.3,126a93.15,93.15,0,0,1,8.42-6.34l8.34-5.53a76.85,76.85,0,0,0,7.11-5.25,24.39,24.39,0,0,0,5-5.57A11.88,11.88,0,0,0,397,96.87a11,11,0,0,0-1.13-5,8.4,8.4,0,0,0-3.63-3.62,13.42,13.42,0,0,0-6.47-1.36,14.56,14.56,0,0,0-4.94.77A8.56,8.56,0,0,0,377.31,90a10.64,10.64,0,0,0-2.18,3.76,15.36,15.36,0,0,0-.77,5,12.91,12.91,0,0,1-.27,2.76,2.89,2.89,0,0,1-1.4,1.9,8,8,0,0,1-3.85.68,6.55,6.55,0,0,1-3.85-.86,3.37,3.37,0,0,1-1.36-2.22,17.76,17.76,0,0,1-.23-2.9,24.35,24.35,0,0,1,1.5-8.56,20.59,20.59,0,0,1,11.41-12,23.74,23.74,0,0,1,9.38-1.76,24.1,24.1,0,0,1,11.63,2.72,19.82,19.82,0,0,1,7.89,7.65,22.87,22.87,0,0,1,2.85,11.64,19.59,19.59,0,0,1-1.09,6.61,22.3,22.3,0,0,1-3,5.75,33.67,33.67,0,0,1-4.44,5,51.36,51.36,0,0,1-5.3,4.31q-2.81,2-5.71,3.76t-5.61,3.39l-3.44,1.81h25.72a11,11,0,0,1,2.76.32,3.17,3.17,0,0,1,1.95,1.5,7.56,7.56,0,0,1,.72,3.8,6.86,6.86,0,0,1-.77,3.71,3.33,3.33,0,0,1-2,1.5,11.73,11.73,0,0,1-2.81.32Z"/><path class="cls-2" d="M445.38,140a7,7,0,0,1-3.72-.77,3.17,3.17,0,0,1-1.45-2,13,13,0,0,1-.27-2.72v-54a11.18,11.18,0,0,1,.32-2.81,3.19,3.19,0,0,1,1.49-2,7.36,7.36,0,0,1,3.71-.73,6.71,6.71,0,0,1,3.67.77,3.39,3.39,0,0,1,1.45,2,11.42,11.42,0,0,1,.32,2.85V101a20.32,20.32,0,0,1,4.66-3.85,12.93,12.93,0,0,1,6.93-1.77A18.41,18.41,0,0,1,472.37,98a19,19,0,0,1,6.88,7.42,23.25,23.25,0,0,1,2.54,11.1v18a12.48,12.48,0,0,1-.27,2.68,3,3,0,0,1-1.41,1.94,7.19,7.19,0,0,1-3.76.73,7,7,0,0,1-3.62-.73,3.19,3.19,0,0,1-1.5-1.94,11.59,11.59,0,0,1-.31-2.86V116.44a12.9,12.9,0,0,0-1.09-5.57,8.38,8.38,0,0,0-3.21-3.63,9.8,9.8,0,0,0-5.21-1.31,10.6,10.6,0,0,0-7.16,2.49,9.58,9.58,0,0,0-3.35,6.39v19.74a11.21,11.21,0,0,1-.32,2.72,3.17,3.17,0,0,1-1.45,2A7.18,7.18,0,0,1,445.38,140Z"/><path class="cls-2" d="M527,139.81a6.27,6.27,0,0,1-3.94-1,3.58,3.58,0,0,1-1.31-2.72l.64-3a14.27,14.27,0,0,1-2.45,2.77,16,16,0,0,1-11.23,4,18.61,18.61,0,0,1-8-1.77,21.57,21.57,0,0,1-6.65-4.89,23,23,0,0,1-6.16-15.81,21.6,21.6,0,0,1,1.63-8.37,22.93,22.93,0,0,1,11.23-11.87,18.26,18.26,0,0,1,8-1.77,17.33,17.33,0,0,1,6.2,1,15.9,15.9,0,0,1,4.4,2.49,17.46,17.46,0,0,1,3,3.13l-.46-2.63a3.45,3.45,0,0,1,1.18-3,6.36,6.36,0,0,1,4.08-1,6.48,6.48,0,0,1,3.57.77,3.27,3.27,0,0,1,1.41,2.13,15.38,15.38,0,0,1,.27,3v33.06a13.54,13.54,0,0,1-.27,2.81,3,3,0,0,1-1.41,2A7,7,0,0,1,527,139.81ZM510.32,129.3a10.19,10.19,0,0,0,5.48-1.54,11.09,11.09,0,0,0,3.94-4.21,12.19,12.19,0,0,0,1.45-5.93,12,12,0,0,0-1.5-6.07,11.36,11.36,0,0,0-4-4.17,10.41,10.41,0,0,0-5.52-1.54,11.33,11.33,0,0,0-10.1,5.84,12.1,12.1,0,0,0-1.5,6,11.37,11.37,0,0,0,5.75,10.05A11.84,11.84,0,0,0,510.32,129.3Z"/><path class="cls-2" d="M546.64,139.9a6.75,6.75,0,0,1-3.67-.77,3.2,3.2,0,0,1-1.4-2,12.78,12.78,0,0,1-.27-2.76V100.5a10.15,10.15,0,0,1,.31-2.63A3.07,3.07,0,0,1,543.06,96a7.5,7.5,0,0,1,3.67-.68,7.42,7.42,0,0,1,3.26.55,2.83,2.83,0,0,1,1.45,1.4,5.07,5.07,0,0,1,.41,1.63,9.29,9.29,0,0,0,.13,1.22l-.36,2.9a8.71,8.71,0,0,1,1.81-2.81,15.64,15.64,0,0,1,3.08-2.49,18.12,18.12,0,0,1,3.94-1.81,14.5,14.5,0,0,1,4.4-.68,18.18,18.18,0,0,1,7.61,1.54,16.7,16.7,0,0,1,5.75,4.35,19.56,19.56,0,0,1,3.67,6.7,27.89,27.89,0,0,1,1.26,8.61v18a11.18,11.18,0,0,1-.31,2.77,3.27,3.27,0,0,1-1.41,1.94,9.68,9.68,0,0,1-7.47,0,3.36,3.36,0,0,1-1.45-2,11,11,0,0,1-.32-2.76V116.44a13.38,13.38,0,0,0-1.08-5.62,8.25,8.25,0,0,0-3.26-3.67,10.43,10.43,0,0,0-5.44-1.31,11,11,0,0,0-5.43,1.31,9.09,9.09,0,0,0-3.63,3.67,11.75,11.75,0,0,0-1.26,5.62v18a12.91,12.91,0,0,1-.28,2.77,3,3,0,0,1-1.4,1.94A7.22,7.22,0,0,1,546.64,139.9Z"/><path class="cls-2" d="M610.5,138.81a19.27,19.27,0,0,1-7.93-1.63,20,20,0,0,1-6.47-4.62,21.25,21.25,0,0,1-4.35-6.93,23.22,23.22,0,0,1-1.54-8.56,22.63,22.63,0,0,1,1.54-8.42,21.49,21.49,0,0,1,4.35-6.89,20.59,20.59,0,0,1,6.47-4.66,18.62,18.62,0,0,1,7.84-1.68,15,15,0,0,1,7,1.59,14.21,14.21,0,0,1,5.07,4.48,20.44,20.44,0,0,1,3,6.89,35.9,35.9,0,0,1,1,8.78,33.87,33.87,0,0,1-1.77,11.51,15.53,15.53,0,0,1-5.34,7.51A14.62,14.62,0,0,1,610.5,138.81Zm.9,19.39a26,26,0,0,1-11.64-2.81,14.48,14.48,0,0,1-3.8-2.77,4.2,4.2,0,0,1-1.4-2.76,5.29,5.29,0,0,1,.4-2.17,7,7,0,0,1,1.23-1.81,16.09,16.09,0,0,1,1.81-1.63,3,3,0,0,1,1.9-.55,3.18,3.18,0,0,1,2,.73c.63.48,1.37,1,2.22,1.63a15,15,0,0,0,3.08,1.63,12.29,12.29,0,0,0,4.53.72,11.34,11.34,0,0,0,4.39-.81,9.63,9.63,0,0,0,3.39-2.4,10.8,10.8,0,0,0,2.22-3.76,14.42,14.42,0,0,0,.78-4.89l-.1-37.5a3.75,3.75,0,0,1,1.45-3,7.3,7.3,0,0,1,4-.86,6.94,6.94,0,0,1,3.53.68,3,3,0,0,1,1.36,1.9,12.94,12.94,0,0,1,.27,2.77v36.59a21.75,21.75,0,0,1-1.72,8.88,19.12,19.12,0,0,1-4.76,6.61,21,21,0,0,1-6.88,4.12A23.67,23.67,0,0,1,611.4,158.2Zm.09-29.62a9.94,9.94,0,0,0,5.39-1.5,11,11,0,0,0,3.85-4.12,11.93,11.93,0,0,0,1.45-5.89,11.66,11.66,0,0,0-1.45-5.89,10.57,10.57,0,0,0-9.42-5.43,10.08,10.08,0,0,0-9.15,5.48,12.42,12.42,0,0,0-1.35,5.84,12.21,12.21,0,0,0,1.4,5.94,10.79,10.79,0,0,0,3.8,4.07A10.13,10.13,0,0,0,611.49,128.58Z"/><path class="cls-2" d="M659.86,120.79a6.8,6.8,0,0,1-3.39-.64,2.74,2.74,0,0,1-1.32-1.77,10.68,10.68,0,0,1-.27-2.49V110a5.42,5.42,0,0,1,1-3.45,8.11,8.11,0,0,1,2.58-2.12c1-.58,2.17-1.12,3.35-1.63a22.53,22.53,0,0,0,3.35-1.82,8.16,8.16,0,0,0,2.58-2.71,8.69,8.69,0,0,0,1-4.49c0-2.83-.77-5-2.31-6.43s-3.85-2.17-6.93-2.17a10.54,10.54,0,0,0-3.89.68,8.34,8.34,0,0,0-2.86,1.81,7.14,7.14,0,0,0-1.67,2.67,8.16,8.16,0,0,1-1.32,2.58,2.9,2.9,0,0,1-1.9,1.13,6.44,6.44,0,0,1-3.12-.54,9.69,9.69,0,0,1-2.9-1.49,2.65,2.65,0,0,1-1-1.86,8.09,8.09,0,0,1,.36-2.72,11.24,11.24,0,0,1,1.14-2.76,18.08,18.08,0,0,1,2.26-3.22,17.81,17.81,0,0,1,3.49-3A19.24,19.24,0,0,1,653,76.13a21.54,21.54,0,0,1,6.48-.91,21,21,0,0,1,10.14,2.36A17.07,17.07,0,0,1,676.39,84a20.14,20.14,0,0,1,1.5,15.49,15.75,15.75,0,0,1-2.49,4.62,18.65,18.65,0,0,1-3.49,3.4,24.6,24.6,0,0,1-3.8,2.31,22.11,22.11,0,0,1-3.54,1.35l.55-1v6.07a8.81,8.81,0,0,1-.28,2.31,2.59,2.59,0,0,1-1.35,1.63A8.2,8.2,0,0,1,659.86,120.79Zm0,19.2c-2.47,0-4.1-.49-4.89-1.45a7.53,7.53,0,0,1-1.18-4.71,17.32,17.32,0,0,1,.23-2.76,3.55,3.55,0,0,1,1.54-2.36,7.54,7.54,0,0,1,4.3-1c2.6,0,4.27.48,5,1.45a7.76,7.76,0,0,1,1.13,4.71,16.78,16.78,0,0,1-.23,2.85,3.39,3.39,0,0,1-1.53,2.31A8,8,0,0,1,659.86,140Z"/></svg>