<svg id="Layer_1" data-name="Layer 1" xmlns="http://www.w3.org/2000/svg" viewBox="0 0 200 200"><defs><style>.cls-1{fill:#0080ff;}.cls-2{fill:#fff;}</style></defs><rect class="cls-1" x="32.22" y="30.49" width="157.28" height="139.03" rx="62.91"/><path class="cls-1" d="M32.22,100c0,43.45-21.72,69.51-21.72,69.51s47.79,0,60.83-33C81.48,110.78,32.22,72.35,32.22,100Z"/><path class="cls-2" d="M108.93,124.24a16.05,16.05,0,0,1-6.77-1.49,18.37,18.37,0,0,1-5.7-4.14,19.49,19.49,0,0,1-3.9-6.21,20.79,20.79,0,0,1-1.41-7.68,19.72,19.72,0,0,1,5.31-13.57,18.37,18.37,0,0,1,5.7-4.14,16.05,16.05,0,0,1,6.77-1.49A15.2,15.2,0,0,1,115.78,87a15,15,0,0,1,5.08,4.14A18.74,18.74,0,0,1,124,97.29a24.66,24.66,0,0,1,1.11,7.51,23.31,23.31,0,0,1-1,7.52,19.46,19.46,0,0,1-3.18,6.18,15.39,15.39,0,0,1-5.08,4.21A15,15,0,0,1,108.93,124.24Zm1.34-9.21a9.19,9.19,0,0,0,4.84-1.3,9.53,9.53,0,0,0,3.46-3.58,10.26,10.26,0,0,0,1.3-5.19,10.7,10.7,0,0,0-1.26-5.27,9.26,9.26,0,0,0-3.46-3.59,9.63,9.63,0,0,0-5-1.29,9.44,9.44,0,0,0-8.38,4.88,10.4,10.4,0,0,0-1.3,5.27,10.26,10.26,0,0,0,1.3,5.19,9.44,9.44,0,0,0,3.54,3.58A9.63,9.63,0,0,0,110.27,115Zm14.56,9.21a5.67,5.67,0,0,1-3.26-.75,3.28,3.28,0,0,1-1.3-2.4V72.69a14.05,14.05,0,0,1,.19-2.44,2.68,2.68,0,0,1,1.14-1.77,5.58,5.58,0,0,1,3.15-.67,6.14,6.14,0,0,1,3.19.63,2.78,2.78,0,0,1,1.26,1.73,10.28,10.28,0,0,1,.28,2.44v46.83a10.22,10.22,0,0,1-.28,2.44,2.81,2.81,0,0,1-1.22,1.73A5.9,5.9,0,0,1,124.83,124.24Z"/></svg>